<svg fill="none" height="31" viewBox="0 0 93 31" width="93" xmlns="http://www.w3.org/2000/svg"><path d="m15.64 15.44v9.36l.08 1.84c.08.8533.2933 1.4667.64 1.84s.9333.6133 1.76.72l2.04.16v.64h-19.2v-.64h1.24c.58667-.08 1.14667-.1467 1.68-.2.53333-.08.94667-.28 1.24-.6.32-.3467.52-.9467.6-1.8l.08-1.84v-18.96l-.08-1.84c-.08-.85333-.28-1.45333-.6-1.8s-.77333-.56-1.36-.64-1.09333-.12-1.52-.12c-.42667-.02667-.82667-.05333-1.2-.08v-.640001l17.88-.04c2.48 0 4.4933.106666 6.04.320001 1.5467.21333 2.8.64 3.76 1.28.9867.64 1.76 1.44 2.32 2.4.5867.93333.88 2.02667.88 3.28 0 .93333-.1733 1.86667-.52 2.8-.32.9333-.8267 1.7333-1.52 2.4s-1.56 1.1867-2.6 1.56c-1.0133.3733-2.64.56-4.88.56v.28c1.36.2933 2.4933.5733 3.4.84.9333.2667 1.7733.6533 2.52 1.16s1.4133 1.2667 2 2.28c.6133.9867 1.1067 2.08 1.48 3.28.3733 1.1733.7067 2.0133 1 2.52.2933.48.7067.72 1.24.72.6933 0 1.1467-.44 1.36-1.32.24-.9067.36-1.9333.36-3.08h.64c0 1.3067-.08 2.3467-.24 3.12s-.56 1.5867-1.2 2.44c-.64.8267-1.56 1.5067-2.76 2.04-1.1733.5067-2.4533.76-3.84.76-2.16 0-3.8933-.6133-5.2-1.84-1.28-1.2533-2.08-2.88-2.4-4.88-.2933-2.0267-.5333-3.7333-.72-5.12-.2933-1.5467-.68-2.44-1.16-2.68-.48-.2667-1-.4133-1.56-.44s-1.12-.04-1.68-.04zm3.2-.84c1.0133-.16 1.7733-.8933 2.28-2.2.5333-1.3067.8-2.76.8-4.36 0-1.30667-.2667-2.58667-.8-3.84-.5333-1.28-1.1733-2.02667-1.92-2.24-.7467-.21334-1.4133-.33334-2-.36-.5867-.02667-1.1067-.05333-1.56-.08v13.2h1.36c.7467 0 1.36-.04 1.84-.12zm30.9244 15.4h-12.96v-.64l.96-.04c.7733-.08 1.24-.2667 1.4-.56s.24-.9333.24-1.92l.04-1.84v-9.56l-.04-1.64c-.0534-.64-.1334-1.12-.24-1.44-.1067-.32-.5867-.52-1.44-.6l-1.08-.08v-.64h10.48v13.96l.04 1.84c0 .96.08 1.6.24 1.92.16.2933.6266.48 1.4.56l.96.04zm-10.4-25.64c0-1.04.3733-1.92 1.12-2.64.7733-.746667 1.6933-1.120001 2.76-1.120001 1.0933 0 2.0133.360001 2.76 1.080001.7733.69333 1.16 1.58667 1.16 2.68 0 1.06667-.3867 1.97333-1.16 2.72-.7467.72-1.6667 1.08-2.76 1.08-1.0667 0-1.9867-.36-2.76-1.08-.7467-.74667-1.12-1.65333-1.12-2.72zm23.1937 7.32c-.16 0-.32.0133-.48.04-.16 0-.4533.04-.88.12-.4.0533-.6.36-.6.92 0 .2933.0267.5467.08.76.0534.2133.1467.48.28.8l3.04 8.08 2.84-7.36c.32-.9333.48-1.6667.48-2.2 0-.3733-.0933-.6267-.28-.76-.1866-.1333-.48-.24-.88-.32l-1.28-.08v-.64h6.68v.64l-1.48.16c-.4266.08-.8133.3333-1.16.76-.3466.4-.7066 1.08-1.08 2.04-.3733.9333-1.1066 2.8-2.2 5.6-1.0666 2.8-1.88 4.9333-2.44 6.4s-1 2.64-1.32 3.52h-2.84c-.4533-1.1467-1.0133-2.5867-1.68-4.32-.6666-1.76-1.5066-3.9333-2.52-6.52-1.0133-2.6133-1.7066-4.3733-2.08-5.28-.3733-.9067-.6533-1.48-.84-1.72-.16-.2667-.4133-.4267-.76-.48-.3466-.08-.6666-.12-.96-.12-.2933-.0267-.5066-.04-.64-.04v-.64h13zm29.9153 8.84c0 2.8267-1.08 5.1867-3.24 7.08-2.1333 1.8667-4.6533 2.8-7.56 2.8-3.0666 0-5.64-.9333-7.72-2.8-2.0533-1.8933-3.08-4.2533-3.08-7.08s1.04-5.1733 3.12-7.04c2.1067-1.8933 4.6667-2.84 7.68-2.84 2.96 0 5.4934.9333 7.6 2.8 2.1334 1.8667 3.2 4.2267 3.2 7.08zm-7.96-.04c0-.3733-.0266-1.12-.08-2.24-.0533-1.12-.08-1.7867-.08-2 0-1.44-.2266-2.6267-.68-3.56-.4266-.9333-1.1066-1.4-2.04-1.4-.8533 0-1.5066.4933-1.96 1.48-.4533.96-.68 2.12-.68 3.48 0 .5067-.0266 1.1333-.08 1.88-.0266.72-.0533 1.5067-.08 2.36 0 .3733.0267 1.1467.08 2.32.0534 1.1467.08 1.8133.08 2 0 1.44.2134 2.6267.64 3.56.4534.9333 1.1334 1.4 2.04 1.4.88 0 1.5467-.48 2-1.44.4534-.96.68-2.1333.68-3.52 0-.5333.0134-1.16.04-1.88.0267-.7467.0667-1.56.12-2.44z" fill="#224f34"/></svg>